{"title":"Fairy Tail ep 109-120","uid":10305178,"size":2838638276,"categoryP":"video","categoryS":"tv_shows","magnet":"?xt=urn:btih:823a99864c7e8a22c7f04f98678dfcc7e0375494&amp;dn=Fairy+Tail+ep+109-120&amp;tr=udp%3A%2F%2Ftracker.openbittorrent.com%3A80&amp;tr=udp%3A%2F%2Fopen.demonii.com%3A1337&amp;tr=udp%3A%2F%2Ftracker.coppersurfer.tk%3A6969&amp;tr=udp%3A%2F%2Fexodus.desync.com%3A6969","seeders":1,"leechers":0,"uploader":"p7trick","files":-1,"time":1402116580,"description":"watchcartoononline\n\nFairy Tail eps 109-120 ENGLISH DUBBED\n_________________________________________________________\n\nFormat                                   : MPEG-4\nFormat profile                           : Base Media\nCodec ID                                 : isom\nFile size                                : 224 MiB\nDuration                                 : 24mn 40s\nOverall bit rate mode                    : Variable\nOverall bit rate                         : 1 268 Kbps\nEncoded date                             : UTC 2014-05-08 19:43:05\nTagged date                              : UTC 2014-05-08 19:43:05\n\nVideo\nID                                       : 1\nFormat                                   : AVC\nFormat/Info                              : Advanced Video Codec\nFormat profile                           : &lt;a class=&quot;__cf_email__&quot; href=&quot;/cdn-cgi/l/email-protection&quot; data-cfemail=&quot;97d5f6e4f2fbfef9f2d7dba4b9a7&quot;&gt;[email&amp;#160;protected]&lt;/a&gt;&lt;script cf-hash='f9e31' type=&quot;text/javascript&quot;&gt;\n/* &lt;![CDATA[ */!function(){try{var t=&quot;currentScript&quot;in document?document.currentScript:function(){for(var t=document.getElementsByTagName(&quot;script&quot;),e=t.length;e--;)if(t[e].getAttribute(&quot;cf-hash&quot;))return t[e]}();if(t&amp;&amp;t.previousSibling){var e,r,n,i,c=t.previousSibling,a=c.getAttribute(&quot;data-cfemail&quot;);if(a){for(e=&quot;&quot;,r=parseInt(a.substr(0,2),16),n=2;a.length-n;n+=2)i=parseInt(a.substr(n,2),16)^r,e+=String.fromCharCode(i);e=document.createTextNode(e),c.parentNode.replaceChild(e,c)}}}catch(u){}}();/* ]]&gt; */&lt;/script&gt;\nFormat settings, CABAC                   : No\nFormat settings, ReFrames                : 3 frames\nCodec ID                                 : avc1\nCodec ID/Info                            : Advanced Video Coding\nDuration                                 : 24mn 40s\nBit rate                                 : 1 181 Kbps\nMaximum bit rate                         : 6 498 Kbps\nWidth                                    : 854 pixels\nHeight                                   : 480 pixels\nDisplay aspect ratio                     : 16:9\nFrame rate mode                          : Constant\nFrame rate                               : 24.390 fps\nColor space                              : YUV\nChroma subsampling                       : 4:2:0\nBit depth                                : 8 bits\nScan type                                : Progressive\nBits/(Pixel*Frame)                       : 0.118\nStream size                              : 208 MiB (93%)\nWriting library                          : Zencoder Video Encoding System\nEncoded date                             : UTC 2014-05-08 19:39:25\nTagged date                              : UTC 2014-05-08 19:43:06\n\nAudio\nID                                       : 2\nFormat                                   : AAC\nFormat/Info                              : Advanced Audio Codec\nFormat profile                           : LC\nCodec ID                                 : 40\nDuration                                 : 24mn 40s\nBit rate mode                            : Variable\nBit rate                                 : 84.3 Kbps\nMaximum bit rate                         : 112 Kbps\nChannel(s)                               : 2 channels\nChannel positions                        : Front: L R\nSampling rate                            : 44.1 KHz\nCompression mode                         : Lossy\nStream size                              : 14.9 MiB (7%)\nLanguage                                 : English\n_________________________________________________________\n\nFairy Tail:\nLucy is a 17-year-old girl, who wants to be a full-fledged mage. One day when visiting Harujion Town, she meets Natsu, a young man who gets sick easily by any type of transportation. But Natsu isnÎ“Ã‡Ã–t just any ordinary kid, heÎ“Ã‡Ã–s a member of one of the worldÎ“Ã‡Ã–s most infamous mage guilds: Fairy Tail.\n\nFor updates/requests:\nTwitter - @p7tricktorrent\nFacebook - /p7tricktorrent\nTPB - /user/p7trick/\nKAT - /user/iPirate7\n_________________________________________________________\n\nSEED!\n\nshare ratio:\n&quot;Scumbag = 0.1:1\nLeecher = 0.999:1\nMinimum = 1:1\nGood = 3:1\nGreat = 5:1\nAwesome = 10:1\n1337 = 100:1&quot;\t\t\t","torrent":{"xt":"urn:btih:823a99864c7e8a22c7f04f98678dfcc7e0375494","amp;dn":"Fairy+Tail+ep+109-120","amp;tr":["udp%3A%2F%2Ftracker.openbittorrent.com%3A80","udp%3A%2F%2Fopen.demonii.com%3A1337","udp%3A%2F%2Ftracker.coppersurfer.tk%3A6969","udp%3A%2F%2Fexodus.desync.com%3A6969"],"infoHash":"823a99864c7e8a22c7f04f98678dfcc7e0375494","infoHashBuffer":{"type":"Buffer","data":[130,58,153,134,76,126,138,34,199,240,79,152,103,141,252,199,224,55,84,148]},"announce":[],"urlList":[]}}